<svg width="579" height="536" viewBox="0 0 579 536" fill="none" xmlns="http://www.w3.org/2000/svg">
<path d="M223.863 0.973061C222.779 1.44484 220.661 2.62429 219.183 3.52067C215.241 5.92674 214.946 5.97391 212.286 4.5114C210.069 3.33195 209.724 3.28478 208.147 3.80374C206.719 4.32269 206.029 4.32268 204.65 3.8509C203.221 3.33194 202.63 3.33196 201.3 3.8981C200.462 4.27552 198.344 4.55858 196.62 4.60576C193.812 4.65293 193.467 4.74729 192.186 6.16263C191.447 7.01183 186.964 9.74815 182.038 12.4373C177.16 15.0321 171.249 18.476 168.835 19.9857C160.115 25.5999 150.558 34.1863 146.272 40.1778C141.099 47.5376 138.735 53.9066 136.665 66.2672C135.927 70.5132 134.695 77.3539 133.907 81.5056C133.168 85.6572 131.936 92.4509 131.246 96.6025C127.256 120.333 123.315 129.391 106.91 152.98C98.4367 165.105 83.8545 184.825 82.3766 186.099C81.6377 186.759 81.0958 186.806 79.5686 186.476C77.2039 185.957 76.0216 186.382 73.854 188.599C72.9179 189.543 69.6173 191.949 66.5136 193.883C55.3307 200.96 50.0102 207.187 32.1274 233.89C19.6636 252.572 13.4071 265.546 10.3527 279.134C9.21967 283.993 5.52487 305.647 3.89916 316.687C0.894063 337.068 -0.830175 376.792 0.401423 397.361C2.22419 427.791 9.51525 509.597 11.0917 517.193C12.0277 521.863 13.6042 525.024 16.5107 528.091C22.4224 534.366 25.5753 539.083 25.5753 541.678C25.5753 542.527 24.59 545.641 23.3584 548.66C19.8114 557.341 20.1563 558.662 27.0532 564.04C27.94 564.795 28.0878 565.22 27.8414 566.635C27.4473 568.994 26.3635 570.268 21.8312 573.617C16.8556 577.25 15.2791 579.326 12.9637 584.987C10.7961 590.507 10.6483 590.696 8.52997 591.073C6.21457 591.498 5.86972 592.064 6.01751 595.555C6.11604 598.433 5.82046 599.282 3.50505 603.623C3.40652 603.858 96.7124 604 210.808 604H418.357L415.943 602.207C414.613 601.169 410.967 598.763 407.864 596.782C398.897 591.12 398.306 590.696 397.173 588.431C395.301 584.704 393.873 575.127 393.873 565.786C393.873 558.568 394.02 557.011 395.055 553.52C396.582 548.236 398.848 543.329 403.233 535.781C407.519 528.468 412.297 517.9 415.155 509.644C416.238 506.389 419.982 494.925 423.382 484.168C431.658 458.221 438.21 439.444 441.511 432.226C443.038 429.017 447.324 420.431 451.068 413.119C454.861 405.853 458.458 398.305 459.147 396.37C460.428 392.643 460.527 389.53 460.083 375.188C459.886 369.338 459.886 369.243 461.66 364.667C462.645 362.119 463.877 359.383 464.419 358.581L465.404 357.118L465.699 358.487C465.847 359.241 465.946 372.357 465.896 387.69C465.798 416.846 465.946 419.723 468.015 427.366C469.542 433.075 472.695 441.52 474.764 445.435C478.36 452.323 478.902 450.106 476.833 437.274C473.188 414.345 473.68 394.153 478.311 377.641C478.902 375.471 479.493 373.819 479.592 373.914C479.69 374.008 479.395 378.632 478.951 384.199C478.508 389.813 478.163 400.286 478.114 407.74L478.065 421.186L479.69 426.753C481.562 433.358 486.587 445.671 488.853 449.304C489.888 450.955 490.775 451.852 491.415 451.852C492.302 451.852 492.351 451.427 492.351 442.416V432.98L495.209 425.432C499.297 414.723 505.505 399.673 505.751 399.909C505.85 400.003 505.308 402.315 504.47 405.004C501.711 414.062 501.022 417.742 500.529 425.432C500.036 433.83 499.544 435.622 496.243 441.661C495.061 443.831 494.075 445.907 494.075 446.332C494.075 447.983 496.046 445.105 500.135 437.462C505.455 427.602 508.51 420.101 509.791 414.109C510.677 409.816 511.071 406.608 512.106 394.53C512.451 390.945 512.5 390.709 512.845 392.407C513.485 395.851 514.274 405.523 514.569 413.921C514.816 420.95 514.717 422.979 513.83 428.027C512.549 435.386 512.5 437.085 513.732 438.123C514.569 438.878 514.766 438.878 516.638 438.17C517.771 437.745 520.382 436.141 522.501 434.632C524.619 433.122 526.442 431.942 526.54 432.037C526.737 432.273 523.634 437.368 516.589 448.502C512.057 455.531 511.219 457.371 512.254 457.937C513.633 458.787 525.013 448.974 530.137 442.463C533.684 437.934 535.703 434.254 537.083 429.489C538.117 426.045 538.167 425.102 538.117 406.325C538.068 386.557 537.723 379.622 535.95 364.148C533.93 346.079 531.073 319.093 530.777 315.036L530.481 310.79L531.959 312.441C533.881 314.564 537.526 321.688 538.856 325.84C540.137 329.802 540.236 337.115 539.152 349.004C538.019 361.836 538.265 364.289 540.334 360.987C543.487 356.081 546.394 341.738 546.443 331.076C546.443 325.934 546.246 324.141 545.162 319.99C543.241 312.677 542.847 306.497 542.847 283.191C542.847 262.763 543.093 257.243 543.881 257.243C544.62 257.243 549.251 267.103 551.665 273.85C555.705 285.172 559.596 303.996 561.419 320.839C562.602 331.925 561.863 337.728 557.035 354.335C555.261 360.515 555.064 361.978 556.099 361.978C557.33 361.978 563.242 346.692 565.804 336.974C567.183 331.784 567.232 331.076 567.232 320.933C567.232 310.46 567.035 308.337 564.966 296.165C561.863 277.907 559.596 268.849 553.192 248.987C548.758 235.211 546.936 228.559 543.881 214.783C540.334 198.837 532.452 159.915 532.748 159.679C532.846 159.538 533.881 161.236 534.965 163.453C536.295 166.143 537.773 170.483 539.349 176.38C540.679 181.287 542.995 188.458 544.571 192.373C550.187 206.527 557.33 223.133 559.449 226.908C561.518 230.588 561.715 231.342 563.045 239.41C564.917 250.827 566.395 254.931 573.883 269.745C577.775 277.341 578.021 277.765 578.76 277.341C579.154 277.105 579.056 276.492 578.514 275.265C575.115 267.716 571.272 258.139 570.238 254.743C569.154 251.11 567.971 244.552 566.444 233.418C566.05 230.304 565.41 228.606 562.996 223.983C559.35 216.859 547.576 184.542 543.044 169.115C537.871 151.518 534.62 144.441 527.378 135.194C518.658 124.06 491.612 100.613 487.474 100.613C486.932 100.613 485.011 101.037 483.336 101.556C481.612 102.075 479.937 102.5 479.69 102.5C479.346 102.5 479.247 101.132 479.444 98.3009C479.69 94.621 479.592 93.8662 478.607 91.8375C477.178 88.9125 469.788 82.0246 466.635 80.7036C463.088 79.1939 458.31 79.6657 453.778 81.883C451.856 82.8738 449.689 83.6286 448.999 83.6286C447.718 83.6286 436.781 79.76 411.312 70.2773C393.577 63.6724 376.679 57.7752 370.472 56.0296C363.033 53.9538 360.028 54.7086 350.964 60.9361C346.136 64.2857 345.988 64.3329 343.722 64.0498C341.702 63.7668 341.357 63.8611 340.717 64.8518C340.323 65.4652 339.83 66.8333 339.633 67.9184C339.091 71.0793 337.81 71.6926 328.893 72.9664L324.213 73.6741L319.09 68.862C316.233 66.22 311.897 61.6909 309.385 58.8131C306.577 55.605 302.636 51.8308 299.286 49.1416C290.221 41.8762 285.246 36.8282 282.29 31.8274C277.166 23.241 275.59 21.92 260.219 13.2865C255.145 10.4086 250.859 7.95538 250.761 7.86102C250.662 7.76666 250.416 6.87027 250.268 5.92672C249.874 3.70936 249.234 3.4735 239.282 1.82228C228.838 0.0295183 226.227 -0.112029 223.863 0.973061ZM472.399 124.815C473.188 126.372 473.877 128.259 473.877 129.014C473.877 130.523 471.907 139.629 470.379 145.054C469.345 148.781 468.458 149.819 468.458 147.413C468.458 145.384 466.291 136.751 464.271 130.901C462.349 125.239 462.448 124.202 464.714 124.202C465.995 124.202 468.902 122.55 469.296 121.607C469.69 120.522 470.675 121.465 472.399 124.815ZM299.581 144.299C301.65 146.186 302.192 147.979 301.847 151.612C301.65 153.452 300.813 155.15 297.808 159.962C293.817 166.237 289.482 171.851 288.595 171.851C288.251 171.851 288.201 170.341 288.497 167.228C289.039 160.953 288.99 158.122 288.152 153.405C287.118 147.224 287.659 145.526 292.98 138.732L297.266 133.165L297.512 137.883C297.759 142.554 297.759 142.601 299.581 144.299ZM457.669 188.93C455.896 197.846 452.004 221.105 451.265 227.285C450.231 235.636 450.772 241.061 453.433 249.506C454.221 251.912 455.058 253.705 455.699 254.082C456.684 254.743 456.684 254.837 455.847 258.941C454.664 264.98 455.108 278.001 456.832 288.144C458.261 296.495 461.561 317.536 461.561 318.291C461.561 318.574 458.359 311.262 454.516 302.062C450.625 292.862 446.142 282.53 444.614 279.181C433.037 254.271 430.673 244.08 431.116 220.397C431.313 207.14 431.461 206.668 435.254 206.244C436.584 206.055 438.456 205.583 439.392 205.112C442.644 203.507 447.373 198.318 451.167 192.138C455.699 184.872 458.605 180.673 458.95 180.956C459.049 181.098 458.507 184.683 457.669 188.93ZM288.201 184.4C289.187 185.533 291.404 186.476 293.177 186.476C295.394 186.476 295.887 186.901 296.773 189.26C297.808 192.138 297.709 193.459 296.281 195.063C294.852 196.667 294.753 197.657 295.739 199.875C296.527 201.715 298.251 202.988 299.828 202.988C301.306 202.988 301.256 203.083 299.434 204.876C298.054 206.197 297.906 206.574 298.153 208.461C298.301 210.065 298.842 211.009 300.37 212.613C302.685 214.972 302.981 216.387 302.833 224.454C302.784 228.465 302.931 229.974 303.572 231.106C304.557 232.946 306.922 234.881 309.286 235.824C311.306 236.673 313.375 236.438 325.593 234.079C341.111 231.059 348.205 230.257 350.274 231.295C351.801 232.097 352.688 234.315 353.427 239.646C353.919 242.948 354.56 245.213 355.25 246.298C356.186 247.76 356.284 248.751 356.53 257.903C356.875 272.434 355.693 284.323 353.722 286.352C353.23 286.871 349.387 288.38 345.249 289.749C333.82 293.523 330.273 295.221 327.169 298.524C323.918 301.92 320.371 308.856 318.203 315.979C317.316 318.81 316.38 321.452 316.036 321.829C315.74 322.207 309.336 327.868 301.847 334.426C287.807 346.692 286.674 347.777 282.339 353.061C278.743 357.496 274.851 360.798 268.348 364.997C263.077 368.394 261.008 369.196 260.318 368.111C260.121 367.828 259.776 364.667 259.53 361.129C258.939 352.353 258.446 350.466 255.589 345.89C254.259 343.72 252.485 340.559 251.648 338.861C245.095 325.698 245.342 326.123 241.548 322.584C239.578 320.744 236.573 318.48 234.947 317.583C227.114 313.337 227.016 313.29 224.848 309.846C223.715 308.006 220.168 301.779 216.966 295.929C205.29 274.557 201.053 268.094 185.929 248.704C181.643 243.231 180.855 241.91 180.56 239.976C180.363 238.702 179.673 235.777 178.983 233.513C177.555 228.842 177.653 227.285 179.525 223.747C181.988 219.123 185.338 217.614 189.526 219.312C190.511 219.689 195.24 220.963 199.97 222.096C207.901 223.983 209.281 224.171 217.212 224.454C227.41 224.832 228.543 224.596 230.809 221.293C231.597 220.114 233.026 217.095 233.913 214.5C234.849 211.952 235.932 209.546 236.326 209.216C237.361 208.461 240.021 208.508 242.189 209.358C244.701 210.348 245.785 210.254 248.347 208.697C251.894 206.527 252.386 205.536 252.042 201.101L251.746 197.374L253.52 198.554C254.505 199.167 255.884 199.686 256.623 199.686C258.594 199.686 261.845 196.336 263.816 192.279C266.082 187.609 268.841 185.957 271.55 187.609C272.141 187.986 274.358 188.741 276.427 189.307C279.827 190.203 280.368 190.203 281.846 189.637C283.768 188.882 286.034 186.476 286.477 184.778C286.822 183.457 287.265 183.363 288.201 184.4ZM461.069 229.88C460.428 238.796 459.985 242.099 458.458 248.043L457.423 252.289L456.98 244.741C456.142 229.267 457.029 219.925 460.231 210.301L461.315 206.999L461.463 214.547C461.561 218.699 461.364 225.587 461.069 229.88Z" fill="url(#paint0_linear)"/>
<defs>
<linearGradient id="paint0_linear" x1="141.378" y1="603.879" x2="-99.2887" y2="171.15" gradientUnits="userSpaceOnUse">
<stop offset="0.239583" stop-color="#A8DADC" stop-opacity="0.8"/>
<stop offset="1" stop-color="#E63946" stop-opacity="0.76"/>
</linearGradient>
</defs>
</svg>
