<svg width="97" height="35" viewBox="0 0 97 35" fill="none" xmlns="http://www.w3.org/2000/svg">
<path d="M15.4286 34.324C10.7886 34.324 7.17263 33.028 4.58063 30.436C1.98863 27.812 0.692628 24.068 0.692628 19.204V0.243992H6.93263V18.964C6.93263 25.556 9.78063 28.852 15.4766 28.852C21.1406 28.852 23.9726 25.556 23.9726 18.964V0.243992H30.1166V19.204C30.1166 24.068 28.8206 27.812 26.2286 30.436C23.6686 33.028 20.0686 34.324 15.4286 34.324ZM37.4636 8.83599H59.5916V13.636H37.4636V8.83599ZM37.4636 20.452H59.5916V25.252H37.4636V20.452ZM81.6161 34.324C76.9761 34.324 73.3601 33.028 70.7681 30.436C68.1761 27.812 66.8801 24.068 66.8801 19.204V0.243992H73.1201V18.964C73.1201 25.556 75.9681 28.852 81.6641 28.852C87.3281 28.852 90.1601 25.556 90.1601 18.964V0.243992H96.3041V19.204C96.3041 24.068 95.0081 27.812 92.4161 30.436C89.8561 33.028 86.2561 34.324 81.6161 34.324Z" fill="#1D3557"/>
</svg>
