<svg width="281" height="257" viewBox="0 0 281 257" fill="none" xmlns="http://www.w3.org/2000/svg">
<path d="M15.6441 57.0127C15.8198 57.1532 36.3679 71.1878 61.3066 88.1739C86.2454 105.16 114.236 124.234 123.522 130.559L140.404 142.064L141.084 141.602C141.457 141.341 169.536 122.206 203.453 99.0964C237.393 75.9865 265.229 56.9926 265.339 56.8922C265.471 56.8119 209.249 56.7316 140.448 56.7316C34.6116 56.7316 15.3807 56.7717 15.6441 57.0127Z" fill="black"/>
<path d="M15.6441 57.0127C15.8198 57.1532 36.3679 71.1878 61.3066 88.1739C86.2454 105.16 114.236 124.234 123.522 130.559L140.404 142.064L141.084 141.602C141.457 141.341 169.536 122.206 203.453 99.0964C237.393 75.9865 265.229 56.9926 265.339 56.8922C265.471 56.8119 209.249 56.7316 140.448 56.7316C34.6116 56.7316 15.3807 56.7717 15.6441 57.0127Z" fill="url(#paint0_linear)"/>
<path d="M14.4587 116.805C14.3709 144.232 14.327 174.148 14.3709 183.284L14.4367 199.909L39.595 173.647C53.4474 159.21 70.7904 141.1 78.1666 133.39L91.558 119.416L53.7767 93.6553C32.9871 79.5002 15.6661 67.6943 15.2929 67.4333L14.5904 66.9715L14.4587 116.805Z" fill="black"/>
<path d="M14.4587 116.805C14.3709 144.232 14.327 174.148 14.3709 183.284L14.4367 199.909L39.595 173.647C53.4474 159.21 70.7904 141.1 78.1666 133.39L91.558 119.416L53.7767 93.6553C32.9871 79.5002 15.6661 67.6943 15.2929 67.4333L14.5904 66.9715L14.4587 116.805Z" fill="url(#paint1_linear)"/>
<path d="M265.581 67.3327C265.339 67.5335 248.26 79.2189 227.602 93.2736C206.966 107.328 189.886 118.974 189.689 119.154C189.337 119.455 189.732 119.937 196.055 126.523C199.765 130.398 217.02 148.408 234.407 166.559L266.02 199.547L266.085 166.378C266.107 148.147 266.107 118.311 266.085 100.1C266.02 66.9713 266.02 66.9512 265.581 67.3327Z" fill="black"/>
<path d="M265.581 67.3327C265.339 67.5335 248.26 79.2189 227.602 93.2736C206.966 107.328 189.886 118.974 189.689 119.154C189.337 119.455 189.732 119.937 196.055 126.523C199.765 130.398 217.02 148.408 234.407 166.559L266.02 199.547L266.085 166.378C266.107 148.147 266.107 118.311 266.085 100.1C266.02 66.9713 266.02 66.9512 265.581 67.3327Z" fill="url(#paint2_linear)"/>
<path d="M161.742 138.148C150.041 146.139 140.36 152.625 140.228 152.544C140.118 152.484 130.547 145.979 119 138.108C107.43 130.238 97.8806 123.792 97.7708 123.792C97.6611 123.792 81.0425 141.02 60.8676 162.081L24.162 200.391L82.3817 200.451C114.389 200.471 166.704 200.471 198.624 200.451L256.646 200.391L220.006 162.142C199.831 141.1 183.278 123.833 183.19 123.752C183.103 123.692 173.465 130.157 161.742 138.148Z" fill="black"/>
<path d="M161.742 138.148C150.041 146.139 140.36 152.625 140.228 152.544C140.118 152.484 130.547 145.979 119 138.108C107.43 130.238 97.8806 123.792 97.7708 123.792C97.6611 123.792 81.0425 141.02 60.8676 162.081L24.162 200.391L82.3817 200.451C114.389 200.471 166.704 200.471 198.624 200.451L256.646 200.391L220.006 162.142C199.831 141.1 183.278 123.833 183.19 123.752C183.103 123.692 173.465 130.157 161.742 138.148Z" fill="url(#paint3_linear)"/>
<defs>
<linearGradient id="paint0_linear" x1="140.49" y1="142.064" x2="140.49" y2="56.7316" gradientUnits="userSpaceOnUse">
<stop stop-color="#F1FAEE"/>
<stop offset="1" stop-color="#A8DADC"/>
</linearGradient>
<linearGradient id="paint1_linear" x1="52.9558" y1="199.909" x2="52.9558" y2="66.9715" gradientUnits="userSpaceOnUse">
<stop stop-color="#F1FAEE"/>
<stop offset="1" stop-color="#A8DADC"/>
</linearGradient>
<linearGradient id="paint2_linear" x1="227.85" y1="199.547" x2="227.85" y2="67.2628" gradientUnits="userSpaceOnUse">
<stop stop-color="#F1FAEE"/>
<stop offset="1" stop-color="#A8DADC"/>
</linearGradient>
<linearGradient id="paint3_linear" x1="140.404" y1="200.466" x2="140.404" y2="123.752" gradientUnits="userSpaceOnUse">
<stop stop-color="#F1FAEE"/>
<stop offset="1" stop-color="#A8DADC"/>
</linearGradient>
</defs>
</svg>
