<svg width="424" height="483" viewBox="0 0 424 483" fill="none" xmlns="http://www.w3.org/2000/svg">
<path d="M163.867 0.67923C163.074 1.05658 161.524 1.99994 160.442 2.71689C157.558 4.64133 157.341 4.67908 155.395 3.50931C153.772 2.56595 153.52 2.52823 152.366 2.9433C151.32 3.35837 150.816 3.35837 149.806 2.98102C148.761 2.56595 148.328 2.56595 147.354 3.01877C146.741 3.32065 145.191 3.54706 143.929 3.58478C141.874 3.6225 141.622 3.698 140.684 4.83002C140.143 5.50925 136.863 7.69785 133.257 9.84869C129.688 11.9241 125.361 14.6787 123.595 15.8862C117.213 20.3766 110.218 27.2442 107.082 32.0365C103.296 37.9231 101.565 43.0172 100.051 52.9036C99.5102 56.2997 98.6088 61.7712 98.0319 65.0918C97.4911 68.4124 96.5898 73.8462 96.085 77.1668C93.1646 96.1472 90.2802 103.392 78.2741 122.259C72.0727 131.957 61.4006 147.73 60.319 148.749C59.7782 149.277 59.3816 149.315 58.2639 149.051C56.5333 148.636 55.668 148.975 54.0816 150.749C53.3966 151.504 50.9809 153.428 48.7095 154.975C40.5251 160.635 36.6313 165.616 23.5435 186.974C14.4217 201.917 9.84282 212.294 7.60745 223.161C6.7782 227.048 4.07411 244.368 2.88432 253.198C0.684999 269.499 -0.576906 301.271 0.324454 317.723C1.65847 342.062 6.99452 407.494 8.14826 413.569C8.8333 417.304 9.98704 419.833 12.1142 422.285C16.4408 427.304 18.7483 431.078 18.7483 433.153C18.7483 433.832 18.0272 436.323 17.1258 438.738C14.5299 445.681 14.7823 446.737 19.8299 451.039C20.4789 451.643 20.587 451.982 20.4068 453.114C20.1183 455.001 19.3251 456.02 16.0081 458.699C12.3666 461.605 11.2129 463.265 9.51833 467.793C7.93194 472.208 7.82377 472.359 6.27343 472.661C4.57888 473 4.3265 473.453 4.43466 476.246C4.50677 478.547 4.29044 479.227 2.59588 482.698C2.52377 482.887 70.8108 483 154.313 483H306.21L304.444 481.566C303.47 480.736 300.802 478.811 298.531 477.227C291.969 472.699 291.536 472.359 290.707 470.548C289.337 467.567 288.291 459.907 288.291 452.435C288.291 446.662 288.399 445.417 289.156 442.624C290.274 438.398 291.933 434.474 295.141 428.436C298.278 422.587 301.775 414.135 303.867 407.531C304.66 404.928 307.4 395.758 309.888 387.155C315.945 366.401 320.74 351.383 323.156 345.609C324.273 343.043 327.41 336.176 330.15 330.327C332.927 324.516 335.558 318.478 336.063 316.931C337.001 313.95 337.073 311.46 336.748 299.988C336.604 295.309 336.604 295.234 337.902 291.574C338.623 289.536 339.524 287.347 339.921 286.706L340.642 285.536L340.858 286.63C340.967 287.234 341.039 297.724 341.003 309.988C340.931 333.308 341.039 335.61 342.553 341.723C343.671 346.288 345.978 353.043 347.492 356.175C350.124 361.684 350.521 359.91 349.007 349.647C346.339 331.308 346.699 315.158 350.088 301.95C350.521 300.215 350.954 298.894 351.026 298.969C351.098 299.045 350.882 302.743 350.557 307.196C350.233 311.686 349.98 320.063 349.944 326.025L349.908 336.779L351.098 341.232C352.468 346.515 356.146 356.363 357.804 359.269C358.561 360.59 359.21 361.307 359.679 361.307C360.328 361.307 360.364 360.967 360.364 353.76V346.213L362.455 340.175C365.448 331.61 369.99 319.572 370.171 319.761C370.243 319.837 369.846 321.686 369.233 323.836C367.214 331.081 366.71 334.025 366.349 340.175C365.988 346.892 365.628 348.326 363.212 353.156C362.347 354.892 361.626 356.552 361.626 356.892C361.626 358.212 363.068 355.911 366.061 349.798C369.954 341.911 372.19 335.911 373.127 331.119C373.776 327.685 374.065 325.119 374.822 315.459C375.074 312.592 375.11 312.403 375.363 313.761C375.831 316.516 376.408 324.251 376.624 330.968C376.805 336.591 376.733 338.213 376.084 342.251C375.146 348.137 375.11 349.496 376.012 350.326C376.624 350.93 376.769 350.93 378.139 350.364C378.968 350.024 380.879 348.741 382.429 347.534C383.98 346.326 385.314 345.383 385.386 345.458C385.53 345.647 383.258 349.722 378.103 358.628C374.786 364.25 374.173 365.722 374.93 366.174C375.939 366.854 384.268 359.005 388.018 353.798C390.614 350.175 392.092 347.232 393.101 343.421C393.858 340.666 393.895 339.911 393.858 324.893C393.822 309.082 393.57 303.535 392.272 291.158C390.794 276.706 388.703 255.122 388.486 251.877L388.27 248.481L389.352 249.802C390.758 251.5 393.426 257.198 394.399 260.518C395.337 263.688 395.409 269.537 394.616 279.046C393.786 289.309 393.967 291.272 395.481 288.63C397.788 284.706 399.916 273.235 399.952 264.707C399.952 260.594 399.807 259.16 399.014 255.839C397.608 249.99 397.32 245.047 397.32 226.406C397.32 210.067 397.5 205.652 398.077 205.652C398.618 205.652 402.007 213.539 403.773 218.935C406.73 227.991 409.578 243.047 410.912 256.518C411.778 265.386 411.237 270.027 407.703 283.31C406.405 288.253 406.261 289.423 407.018 289.423C407.92 289.423 412.246 277.197 414.121 269.423C415.131 265.273 415.167 264.707 415.167 256.594C415.167 248.217 415.022 246.519 413.508 236.783C411.237 222.18 409.578 214.935 404.891 199.049C401.646 188.03 400.312 182.71 398.077 171.691C395.481 158.937 389.712 127.806 389.929 127.618C390.001 127.504 390.758 128.863 391.551 130.636C392.524 132.787 393.606 136.259 394.76 140.976C395.733 144.9 397.428 150.636 398.582 153.768C402.692 165.088 407.92 178.37 409.47 181.389C410.984 184.332 411.129 184.936 412.102 191.389C413.472 200.52 414.554 203.803 420.034 215.652C422.882 221.727 423.063 222.067 423.603 221.727C423.892 221.539 423.82 221.048 423.423 220.067C420.935 214.029 418.123 206.369 417.366 203.652C416.573 200.747 415.707 195.502 414.59 186.596C414.301 184.106 413.833 182.748 412.066 179.05C409.398 173.352 400.781 147.504 397.464 135.165C393.678 121.09 391.299 115.429 385.999 108.034C379.617 99.1282 359.823 80.3742 356.795 80.3742C356.398 80.3742 354.992 80.7138 353.766 81.1289C352.504 81.544 351.278 81.8836 351.098 81.8836C350.846 81.8836 350.773 80.7893 350.918 78.5252C351.098 75.582 351.026 74.9782 350.305 73.3556C349.259 71.0161 343.851 65.5069 341.544 64.4503C338.948 63.2428 335.45 63.6201 332.133 65.3937C330.727 66.1861 329.141 66.7899 328.636 66.7899C327.699 66.7899 319.695 63.6956 301.054 56.111C288.075 50.8282 275.708 46.1114 271.165 44.7152C265.721 43.0549 263.522 43.6587 256.888 48.6396C253.354 51.3188 253.246 51.3565 251.588 51.1301C250.109 50.9037 249.857 50.9792 249.388 51.7716C249.1 52.2621 248.739 53.3564 248.595 54.2243C248.199 56.7525 247.261 57.243 240.735 58.2619L237.31 58.8279L233.561 54.979C231.469 52.8659 228.297 49.2433 226.458 46.9416C224.403 44.3756 221.518 41.3569 219.067 39.206C212.433 33.3949 208.791 29.3574 206.628 25.3575C202.878 18.4899 201.724 17.4333 190.475 10.5279C186.762 8.2261 183.625 6.26392 183.553 6.18845C183.481 6.11298 183.301 5.39603 183.192 4.64133C182.904 2.8678 182.435 2.67917 175.152 1.35846C167.509 -0.0754395 165.598 -0.18866 163.867 0.67923ZM345.762 99.732C346.339 100.977 346.844 102.487 346.844 103.09C346.844 104.298 345.401 111.581 344.284 115.92C343.527 118.901 342.878 119.731 342.878 117.807C342.878 116.184 341.291 109.279 339.813 104.6C338.407 100.072 338.479 99.2414 340.137 99.2414C341.075 99.2414 343.202 97.9207 343.49 97.166C343.779 96.2981 344.5 97.0528 345.762 99.732ZM219.283 115.316C220.797 116.826 221.194 118.26 220.941 121.165C220.797 122.637 220.184 123.995 217.985 127.844C215.065 132.863 211.892 137.353 211.243 137.353C210.99 137.353 210.954 136.146 211.171 133.655C211.567 128.636 211.531 126.372 210.918 122.599C210.161 117.656 210.558 116.297 214.452 110.864L217.588 106.411L217.769 110.184C217.949 113.92 217.949 113.958 219.283 115.316ZM334.982 151.013C333.684 158.145 330.835 176.748 330.295 181.691C329.537 188.37 329.934 192.709 331.881 199.464C332.458 201.388 333.071 202.822 333.539 203.124C334.261 203.652 334.26 203.728 333.648 207.011C332.782 211.841 333.107 222.255 334.369 230.368C335.414 237.047 337.83 253.877 337.83 254.481C337.83 254.707 335.486 248.858 332.674 241.5C329.826 234.142 326.545 225.878 325.427 223.199C316.954 203.275 315.224 195.124 315.548 176.182C315.693 165.578 315.801 165.201 318.577 164.861C319.55 164.711 320.92 164.333 321.605 163.956C323.985 162.673 327.446 158.522 330.222 153.579C333.539 147.768 335.667 144.409 335.919 144.636C335.991 144.749 335.595 147.617 334.982 151.013ZM210.954 147.39C211.675 148.296 213.298 149.051 214.596 149.051C216.218 149.051 216.579 149.39 217.228 151.277C217.985 153.579 217.913 154.635 216.867 155.918C215.822 157.201 215.75 157.994 216.471 159.767C217.048 161.239 218.309 162.258 219.463 162.258C220.545 162.258 220.509 162.333 219.175 163.767C218.165 164.824 218.057 165.126 218.237 166.635C218.346 167.918 218.742 168.673 219.86 169.956C221.554 171.842 221.771 172.974 221.663 179.427C221.626 182.634 221.735 183.842 222.203 184.747C222.924 186.219 224.655 187.766 226.386 188.521C227.864 189.2 229.378 189.011 238.32 187.125C249.677 184.71 254.869 184.068 256.383 184.898C257.501 185.54 258.15 187.313 258.69 191.577C259.051 194.219 259.52 196.03 260.024 196.898C260.709 198.068 260.782 198.86 260.962 206.181C261.214 217.803 260.349 227.312 258.907 228.934C258.546 229.35 255.734 230.557 252.705 231.651C244.341 234.67 241.745 236.029 239.473 238.67C237.094 241.387 234.498 246.934 232.912 252.632C232.263 254.896 231.578 257.009 231.325 257.311C231.109 257.613 226.422 262.141 220.941 267.386C210.666 277.197 209.837 278.065 206.664 282.291C204.032 285.838 201.184 288.479 196.424 291.838C192.567 294.555 191.052 295.196 190.548 294.328C190.403 294.102 190.151 291.574 189.971 288.743C189.538 281.725 189.178 280.215 187.086 276.555C186.113 274.819 184.815 272.291 184.202 270.933C179.407 260.405 179.587 260.745 176.811 257.914C175.369 256.443 173.169 254.632 171.98 253.915C166.247 250.519 166.175 250.481 164.588 247.726C163.759 246.255 161.163 241.274 158.82 236.595C150.275 219.501 147.174 214.331 136.105 198.822C132.969 194.445 132.392 193.389 132.175 191.842C132.031 190.823 131.526 188.483 131.022 186.672C129.976 182.936 130.048 181.691 131.418 178.861C133.221 175.163 135.673 173.955 138.737 175.314C139.458 175.616 142.92 176.635 146.381 177.54C152.186 179.05 153.195 179.201 159 179.427C166.463 179.729 167.292 179.54 168.951 176.899C169.528 175.955 170.573 173.54 171.222 171.465C171.907 169.427 172.701 167.503 172.989 167.239C173.746 166.635 175.693 166.673 177.28 167.352C179.118 168.144 179.912 168.069 181.786 166.824C184.382 165.088 184.743 164.295 184.49 160.748L184.274 157.767L185.572 158.711C186.293 159.201 187.303 159.616 187.844 159.616C189.286 159.616 191.665 156.937 193.107 153.692C194.766 149.956 196.785 148.636 198.768 149.956C199.201 150.258 200.823 150.862 202.337 151.315C204.825 152.032 205.222 152.032 206.303 151.579C207.709 150.975 209.368 149.051 209.692 147.692C209.945 146.636 210.269 146.56 210.954 147.39ZM337.469 183.766C337.001 190.898 336.676 193.54 335.558 198.294L334.801 201.69L334.477 195.653C333.864 183.276 334.513 175.804 336.856 168.107L337.65 165.465L337.758 171.503C337.83 174.823 337.686 180.333 337.469 183.766Z" fill="url(#paint0_linear)"/>
<defs>
<linearGradient id="paint0_linear" x1="180" y1="332.5" x2="129.5" y2="320" gradientUnits="userSpaceOnUse">
<stop offset="0.296826" stop-color="#1D3557"/>
<stop offset="0.296879" stop-color="#E63946"/>
</linearGradient>
</defs>
</svg>
