<svg width="361" height="329" viewBox="0 0 361 329" fill="none" xmlns="http://www.w3.org/2000/svg">
<path d="M211.664 0.335724C210.085 0.826385 208.985 1.39453 208.026 2.22089C207.237 2.91815 207.039 2.94397 204.501 2.96979C201.342 2.96979 199.791 3.51212 197.901 5.24231C196.124 6.86923 195.307 8.78024 195.307 11.2335C195.335 13.8159 196.04 15.4171 197.93 17.1214C200.552 19.4973 204.303 20.2462 207.519 19.0324L209.267 18.3868V19.9879C209.267 22.183 208.562 27.761 207.688 32.5385C207.011 36.3346 205.46 43.1006 205.234 43.3072C205.149 43.3588 203.373 43.1006 201.257 42.739C194.63 41.6286 186.507 40.8022 181.882 40.8022H179.71L179.513 36.0764C179.287 30.705 179.71 20.8143 180.359 16.9665C181.036 12.783 181.967 10.4588 183.461 9.03848C185.605 7.0242 185.21 4.08023 182.531 1.73022C181.882 1.16211 181.487 1.00717 180.754 1.08463C179.964 1.16211 179.682 1.36868 178.892 2.63409C177.905 4.18353 177.087 4.64838 176.382 4.10605C176.128 3.92529 175.508 3.15057 174.972 2.40167C174.182 1.26541 173.872 1.03299 173.195 1.03299C172.067 1.03299 170.77 2.09177 169.867 3.69287C169.275 4.80331 169.162 5.24231 169.303 6.50772C169.416 7.82474 169.614 8.18628 170.572 9.14178C172.321 10.872 173.365 13.9709 174.013 19.239C174.408 22.6995 174.718 35.1467 174.464 38.2456L174.239 40.7247L169.98 40.9055C152.551 41.6028 134.078 46.0187 118.143 53.3269L114.561 54.9797L113.32 53.7659C110.472 50.9511 104.944 43.1006 100.318 35.25C95.1291 26.444 93.1549 20.9176 94.2266 18.1286C94.9599 16.166 92.9011 13.4028 89.9679 12.5247C88.7834 12.1632 88.3886 12.1374 87.7117 12.3956C86.8092 12.7313 86.5836 13.2478 86.5836 15.2621C86.5836 17.5088 85.7375 17.8445 83.3402 16.5275C81.648 15.5978 81.225 15.572 80.4353 16.3467C79.6456 17.1214 79.279 18.9808 79.561 20.6852C79.8712 22.3896 81.2814 23.8357 83.0582 24.2489C85.7093 24.8687 88.9526 27.9418 93.4933 34.217C97.2725 39.4077 101.024 45.3473 103.9 50.7187C105.733 54.1275 107.651 58.5176 107.397 58.75C107.341 58.8017 105.959 59.6538 104.323 60.6352C98.5981 64.0956 92.76 68.2533 87.8809 72.3852L85.0888 74.7352L83.1992 72.9016C80.5481 70.3709 76.7125 66.0841 76.7125 65.6709C76.7125 65.4643 77.0227 65.3352 77.5022 65.3352C78.6867 65.3352 81.0557 64.1989 82.3531 63.011C85.9067 59.7571 85.9349 54.4116 82.3813 51.1577C78.8841 47.9555 73.1307 47.8522 69.5771 50.9253C68.6182 51.7516 68.5336 51.7775 66.1081 51.7775C63.9083 51.7775 63.4006 51.8808 62.1033 52.5005C60.2136 53.4044 58.6625 54.8247 57.7882 56.4517C57.2241 57.5104 57.1113 58.1044 57.1113 60.0154C57.1113 62.2621 57.0831 62.3138 56.1524 63.2434C52.345 66.9363 53.0783 73.0308 57.6472 75.8714C59.5368 77.0335 61.7366 77.5758 63.6826 77.3692C67.6875 76.9302 70.818 74.4511 71.7205 71.0423C71.8897 70.3192 72.1436 69.7253 72.2564 69.7253C72.5666 69.7253 77.6432 73.5473 80.0968 75.6132L82.1839 77.3951L79.5328 80.0033C74.0332 85.478 67.7439 93.2253 63.3442 100.017L61.7084 102.522L58.4086 100.921C47.3812 95.5753 37.8204 89.7907 34.577 86.4852C33.1386 85.039 32.1515 83.4637 32.1515 82.689C32.1515 82.1984 30.4594 80.5714 29.4158 80.0808C28.4569 79.6418 25.3828 79.7192 24.2547 80.2616C22.9573 80.8297 22.8163 81.7593 23.8034 83.4121C24.5931 84.7291 24.7341 85.8396 24.1983 86.1495C24.029 86.2527 22.9855 86.3819 21.8856 86.4077C19.6294 86.511 19.1781 86.8209 19.1781 88.2412C19.1781 89.3 20.2498 91.3143 21.3497 92.244C22.4779 93.2253 24.2547 93.6385 25.6366 93.2769C27.1596 92.8379 28.0339 92.8896 30.7696 93.5093C35.0001 94.4907 41.1201 97.1247 49.6939 101.67C54.291 104.097 58.9445 106.835 58.9445 107.119C58.9445 107.248 58.2394 108.694 57.4215 110.321C55.2499 114.453 53.1911 119.23 51.3861 124.266C50.4554 126.874 49.6939 128.604 49.4965 128.604C48.4247 128.604 36.9461 124.912 36.9461 124.576C36.9461 124.498 37.3973 124.111 37.9332 123.672C38.469 123.233 39.3151 122.097 39.8228 121.167C41.6278 117.836 40.8945 114.065 37.9332 111.457C34.6052 108.487 29.1056 108.384 25.6366 111.251C24.2547 112.387 22.5625 114.969 22.5625 115.951C22.5625 116.157 21.9702 116.545 21.2087 116.829C19.2627 117.577 16.8654 119.876 16.1886 121.632C15.1451 124.421 15.6809 127.468 17.6269 129.792C18.2192 130.515 18.2756 130.722 18.0218 131.6C17.8526 132.142 17.7679 133.408 17.8244 134.389C18.2474 141.801 28.4287 144.951 33.8155 139.321C35.7615 137.281 36.5512 134.053 35.7051 131.574C35.4795 130.877 35.3385 130.257 35.4231 130.18C35.7615 129.87 48.0863 131.987 48.5376 132.426C48.6504 132.53 48.3683 134.182 47.9171 136.093C46.9018 140.458 45.8018 147.301 45.407 151.846C44.7583 158.896 45.0404 169.613 46.0557 176.947L46.4223 179.452L44.984 179.736C37.1153 181.182 25.3828 182.164 18.1628 181.983C12.4376 181.854 10.3505 181.466 8.65834 180.227C7.21998 179.168 5.10474 178.936 3.49717 179.685C2.14342 180.33 0.310213 181.957 0.112791 182.732C-0.16924 183.791 0.253807 184.307 1.91779 184.979C2.82029 185.314 3.72279 185.805 3.92021 186.037C4.48428 186.657 3.97662 187.509 2.39724 188.542C1.69217 189.007 1.04349 189.679 0.930682 190.014C0.620448 191.176 2.62287 192.777 5.21756 193.449C6.93795 193.888 8.88396 193.242 10.1813 191.822C12.3247 189.472 17.7679 187.845 28.0057 186.451C33.6745 185.676 38.9203 185.185 43.3482 185.004C46.6761 184.849 47.3812 184.875 47.494 185.185C47.5504 185.392 47.9453 186.941 48.3683 188.646C50.1451 195.876 53.2193 204.243 56.5472 211.009C57.4215 212.74 58.0702 214.186 58.0138 214.237C57.7318 214.521 51.6963 217.517 48.4811 219.015C44.7865 220.693 39.3997 222.863 38.8921 222.863C38.7511 222.863 38.6383 222.01 38.6383 220.977C38.6383 216.303 34.5488 212.662 29.3312 212.688C25.8904 212.688 22.9573 214.444 21.3779 217.388C20.5883 218.86 20.4472 219.376 20.4472 221.055C20.4472 222.604 20.5883 223.276 21.2087 224.49L21.9702 225.962L21.4626 227.072C19.0935 232.108 22.5343 237.892 28.4287 238.77C29.4158 238.899 29.6979 239.106 30.2901 240.036C31.1926 241.43 32.9976 242.928 34.6616 243.625C36.6076 244.426 40.2458 244.374 42.1636 243.522C44.2225 242.592 46.0557 240.81 46.8172 238.977C47.6351 236.988 47.5222 233.915 46.5633 232.211C45.689 230.662 44.2225 229.241 42.7841 228.544L41.5432 227.924L42.2765 227.382C45.0122 225.264 59.7342 217.543 60.1854 217.982C60.2418 218.034 61.2572 219.635 62.4699 221.546C67.3208 229.319 72.8486 236.214 79.9276 243.367L82.4659 245.924L80.2379 247.86C77.5868 250.133 73.2999 253.464 72.5102 253.852C72.0025 254.084 71.9179 254.007 71.7487 253.154C71.2693 250.727 69.154 248.248 66.6158 247.112C64.7543 246.259 60.8341 246.233 58.8599 247.06C56.9703 247.86 54.8833 249.901 54.15 251.708C52.9654 254.601 53.6705 258.113 55.9268 260.359C56.8293 261.263 56.8575 261.366 56.8575 263.458C56.8293 266.041 57.6472 267.9 59.5086 269.604C61.37 271.309 63.4006 272.058 66.2209 272.032C68.5054 272.032 68.6182 272.058 69.5771 272.884C71.4103 274.408 72.8768 274.898 75.7254 274.898C77.8688 274.898 78.4893 274.795 79.6738 274.279C81.4506 273.452 83.171 271.877 84.0735 270.25C85.0324 268.416 85.0606 264.879 84.0735 263.097C82.8326 260.747 80.125 258.836 77.474 258.397L76.4022 258.216L76.9381 257.415C77.5868 256.486 83.0018 250.753 84.4401 249.487L85.4272 248.609L87.5989 250.391C92.9575 254.807 98.6263 258.887 104.126 262.244C107.2 264.104 107.426 264.31 107.256 264.93C106.551 267.668 101.813 276.422 97.3289 283.24C90.7576 293.285 86.4426 297.933 82.9454 298.786C81.789 299.07 80.8019 299.793 79.8994 301.007C79.42 301.678 79.3636 304.777 79.7866 305.81C79.9276 306.197 80.4071 306.688 80.7737 306.946C81.4788 307.333 81.5634 307.333 83.171 306.559C85.9349 305.242 86.5836 305.5 86.5836 307.953C86.5836 310.019 87.063 310.665 88.586 310.665C89.8551 310.665 91.6883 309.916 92.8447 308.909C94.001 307.927 94.6215 306.016 94.1702 304.803C93.6908 303.46 94.0292 301.058 95.0727 298.088C96.8495 293.182 103.618 281.768 109.174 274.253C111.261 271.412 113.997 268.262 114.448 268.107C114.589 268.081 116.451 268.855 118.622 269.837C124.714 272.6 131.821 275.208 138.336 277.042C140.677 277.713 149.364 279.676 151.676 280.089C152.438 280.218 152.438 280.502 151.874 284.841C150.887 292.149 148.095 303.253 145.472 310.277C143.836 314.668 141.495 318.18 139.549 319.083C138.618 319.522 137.659 321.201 137.631 322.441C137.631 324.636 139.352 327.451 140.734 327.451C141.1 327.451 141.89 326.934 142.708 326.159C144.682 324.274 145.472 324.403 146.374 326.779C146.684 327.631 147.079 328.458 147.248 328.638C148.095 329.568 150.52 328.509 152.184 326.547C153.34 325.152 153.481 323.009 152.494 321.614C150.605 318.954 150.774 313.531 153.03 303.176C155.371 292.433 159.15 281.199 160.363 281.406C165.27 282.155 183.123 282.413 189.525 281.793C194.066 281.354 202.668 280.089 206.419 279.263C208.026 278.927 209.408 278.694 209.465 278.746C209.916 279.159 212.087 288.766 212.087 290.315C212.087 290.883 211.975 291.064 211.693 290.961C206.898 289.282 201.652 291.193 199.622 295.377C198.691 297.262 198.747 300.283 199.706 302.169C201.229 305.113 203.993 306.843 207.462 306.998C208.534 307.049 209.944 306.972 210.536 306.817C211.495 306.585 211.721 306.61 212.228 307.024C213.159 307.824 214.908 308.573 216.544 308.883C218.377 309.219 220.492 308.909 222.438 308.031C224.046 307.282 225.992 305.319 226.64 303.821C226.922 303.098 227.289 302.659 227.571 302.659C228.473 302.659 231.435 301.162 232.45 300.18C235.778 296.978 235.806 291.684 232.507 288.585C230.645 286.829 228.53 286.003 225.907 286.003C224.074 286.003 223.51 286.132 221.902 286.855C220.887 287.32 219.646 288.094 219.166 288.585C218.687 289.076 218.236 289.489 218.179 289.489C217.841 289.489 215.81 284.505 214.259 279.753L213.554 277.662L217.926 276.344C224.046 274.485 228.643 272.781 234.481 270.173L239.501 267.926L240.826 269.32C246.777 275.621 257.184 292.433 259.328 299.173C260.061 301.497 260.23 303.951 259.751 305.087C259.469 305.81 260.061 307.876 260.851 308.702C261.725 309.632 264.066 310.665 265.307 310.665C266.943 310.665 267.366 310.2 267.366 308.315C267.366 305.552 268.183 305.164 270.891 306.559C271.906 307.075 272.611 307.282 273.006 307.179C274.275 306.817 275.037 303.976 274.416 301.885C274.022 300.49 272.273 298.786 271.258 298.786C269.735 298.786 266.378 296.203 263.615 292.924C258.03 286.261 248.723 270.947 246.947 265.473L246.523 264.207L249.4 262.477C254.787 259.249 260.061 255.504 265.363 251.192C267.112 249.746 268.691 248.558 268.889 248.558C269.283 248.558 273.373 252.56 275.742 255.272L277.519 257.312L275.686 257.854C273.345 258.552 271.765 259.585 270.581 261.16C267.337 265.498 269.199 271.412 274.501 273.607C275.939 274.227 276.419 274.304 278.449 274.201C281.044 274.098 282.652 273.53 284.287 272.135C285.218 271.309 285.331 271.283 287.672 271.283C290.52 271.257 292.579 270.534 294.356 268.907C296.189 267.229 296.838 265.731 296.866 262.993C296.922 260.747 296.951 260.643 297.825 259.765C298.333 259.275 299.066 258.242 299.489 257.467C300.476 255.582 300.532 252.535 299.602 250.701C298.727 248.945 296.669 247.034 294.92 246.363C293.171 245.665 290.492 245.433 288.941 245.82C285.754 246.595 282.962 249.177 282.257 251.966C282.059 252.715 281.834 253.335 281.749 253.335C281.383 253.335 276.898 249.875 274.473 247.731L271.878 245.459L274.586 242.747C287.531 229.758 297.035 214.599 303.071 197.219C303.522 195.98 303.973 194.973 304.114 194.973C304.848 194.973 315.762 199.827 320.077 202.048C322.813 203.494 325.238 204.863 326.536 205.767L327.466 206.413L326.62 206.774C325.013 207.497 323.518 208.918 322.616 210.622C320.387 214.754 322.249 219.583 326.931 221.881C327.946 222.372 328.566 222.475 330.823 222.475C333.163 222.475 333.671 222.398 334.912 221.778C336.548 221.003 338.578 219.118 339.171 217.801C339.509 217.052 339.707 216.923 340.524 216.923C341.878 216.923 344.755 215.503 345.911 214.289C347.66 212.404 348.168 211.138 348.168 208.659C348.168 206.929 348.027 206.206 347.519 205.199L346.898 203.934L347.519 202.771C348.421 201.015 348.534 198.123 347.744 196.212C347.011 194.379 344.981 192.364 343.091 191.564C341.963 191.073 341.201 190.97 339.143 190.97C336.914 190.97 336.407 191.073 335.138 191.693C331.838 193.268 330.118 195.825 330.118 199.156C330.118 200.602 330.005 201.17 329.751 201.17C327.748 201.17 308.429 192.545 305.694 190.402C305.271 190.066 305.271 189.885 305.778 187.923C306.568 184.849 307.611 179.142 308.176 174.83C308.542 171.937 308.655 169.019 308.683 162.047C308.683 157.063 308.599 152.156 308.458 151.123L308.26 149.238L309.839 148.592C315.113 146.449 331.471 143.324 341.596 142.524C344.586 142.265 346.081 142.265 348.168 142.498C350.678 142.782 352.821 143.453 353.244 144.099C353.329 144.228 354.203 144.357 355.19 144.357C356.685 144.357 357.164 144.228 358.208 143.608C359.674 142.704 360.661 141.568 360.887 140.484C361.113 139.451 360.718 139.063 358.8 138.418C357.305 137.901 356.487 137.333 356.487 136.791C356.487 136.662 357.193 135.887 358.067 135.06C359.392 133.769 359.618 133.434 359.477 132.865C359.223 131.962 357.305 130.748 355.5 130.386C353.442 129.973 351.354 130.619 350.396 132.013C348.76 134.363 344.106 136.3 335.279 138.263C325.802 140.38 312.406 142.24 308.57 141.981L307.301 141.904L306.399 137.849C304.65 130.051 302.591 123.646 299.545 116.622C297.853 112.8 297.656 113.368 301.463 111.276C308.091 107.635 321.995 102.109 329.807 100.017C334.151 98.8808 338.381 98.5709 340.13 99.294C342.583 100.301 345.516 98.8549 346.927 95.911C347.519 94.6973 347.406 93.6126 346.645 93.2511C346.391 93.122 345.488 92.9412 344.614 92.8637C341.935 92.5538 341.54 91.6758 343.232 89.739C343.683 89.2225 344.134 88.5769 344.219 88.3187C344.67 87.0016 342.499 85.7621 339.735 85.7363C337.366 85.7363 335.815 86.5885 334.94 88.3962C334.235 89.894 331.951 91.9599 329.271 93.6126C324.223 96.6599 309.642 102.677 301.379 105.079C297.966 106.086 294.61 106.757 294.497 106.447C293.961 104.949 287.672 95.472 284.682 91.65C283.667 90.3846 282.906 89.1709 282.962 88.9901C283.047 88.8093 284.682 87.4407 286.572 85.9945C292.184 81.6819 299.376 76.9044 303.212 74.9159L304.791 74.1154L304.96 75.5615C305.271 78.428 307.527 81.2429 310.46 82.4566C312.462 83.283 315.79 83.2313 317.849 82.3533C321.036 80.9846 322.926 78.4539 323.151 75.3033C323.292 73.0308 322.926 71.7137 321.657 69.9577C320.726 68.7181 320.669 68.5632 320.98 67.711C321.459 66.3423 321.177 63.1143 320.416 61.7714C318.864 59.0082 316.185 57.3813 312.857 57.1489C310.996 57.0198 310.911 56.9681 309.727 55.7544C309.05 55.0572 307.837 54.205 306.906 53.7918C305.524 53.172 304.96 53.0687 302.902 53.0687C300.843 53.0687 300.279 53.172 298.897 53.7918C295.005 55.5478 292.946 59.5247 293.989 63.2176C294.779 66.0324 296.894 68.2791 299.574 69.1571C300.335 69.3896 300.927 69.6736 300.927 69.7511C300.927 70.0093 297.063 73.3148 294.215 75.4841C288.997 79.461 280.057 85.3489 279.493 85.1681C279.38 85.1165 277.885 83.6445 276.193 81.8626C268.663 74.0121 259.158 66.394 249.739 60.6868C247.285 59.2148 246.664 58.6984 246.721 58.2852C246.834 57.3813 248.752 53.1978 250.528 49.9698C253.574 44.3659 258.538 36.6445 261.979 32.1511C265.109 28.0709 268.776 24.7137 270.468 24.378C271.963 24.094 272.922 23.5258 273.711 22.467C274.473 21.4857 274.557 21.1242 274.557 19.5231C274.529 17.4313 273.937 16.1143 272.893 15.856C272.442 15.7527 271.737 15.9594 270.694 16.5016C268.071 17.8703 267.366 17.483 267.366 14.7973C267.366 12.8346 266.943 12.2665 265.476 12.2923C264.235 12.3181 262.233 13.1703 261.076 14.1517C260.033 15.0555 259.384 17.0182 259.807 18.1028C260.258 19.3165 259.92 22.3121 259.017 24.7912C256.507 31.7121 246.185 48.0071 240.375 54.205L239.557 55.0572L235.806 53.3528C228.981 50.2022 218.884 46.6385 212.257 45.0632L210.339 44.5725L210.508 42.3775C210.959 37.006 212.99 26.4956 214.485 21.8214C214.88 20.5561 215.274 19.4714 215.303 19.4198C215.359 19.394 215.81 19.7297 216.346 20.1687C217.982 21.589 220.097 22.3121 222.523 22.3121C226.189 22.3121 229.122 20.6335 230.73 17.6638C232.478 14.4099 231.801 10.5105 229.009 8.05716C227.656 6.84341 225.907 5.99121 224.187 5.73297C223.143 5.57803 222.861 5.39728 222.325 4.51926C221.395 2.96979 219.702 1.52365 218.038 0.826385C216.205 0.0516663 213.328 -0.154938 211.664 0.335724Z" fill="#E63946"/>
</svg>
