<svg width="74" height="27" viewBox="0 0 74 27" xmlns="http://www.w3.org/2000/svg">
  <defs>
    <linearGradient id="grad1" x1="0%" y1="0%" x2="100%" y2="0%">
      <stop offset="0%" style="stop-color:rgb(255, 0, 0);stop-opacity:1" />
      <stop offset="20%" style="stop-color:rgb(255, 166, 0);stop-opacity:1" />
      <stop offset="40%" style="stop-color:rgb(255, 255, 0);stop-opacity:1" />
      <stop offset="60%" style="stop-color:rgb(0, 255, 0);stop-opacity:1" />
      <stop offset="80%" style="stop-color:rgb(0, 0, 255);stop-opacity:1" />
      <stop offset="100%" style="stop-color:rgb(255, 0, 255);stop-opacity:1" />
    </linearGradient>


  </defs>
<path d="M11.5076 26.37C7.93091 26.37 5.14358 25.371 3.14558 23.373C1.14758 21.3503 0.148578 18.4643 0.148578 14.715V0.0999982H4.95858V14.53C4.95858 19.6113 7.15391 22.152 11.5446 22.152C15.9106 22.152 18.0936 19.6113 18.0936 14.53V0.0999982H22.8296V14.715C22.8296 18.4643 21.8306 21.3503 19.8326 23.373C17.8592 25.371 15.0842 26.37 11.5076 26.37ZM28.4929 6.723H45.5499V10.423H28.4929V6.723ZM28.4929 15.677H45.5499V19.377H28.4929V15.677ZM62.5271 26.37C58.9504 26.37 56.1631 25.371 54.1651 23.373C52.1671 21.3503 51.1681 18.4643 51.1681 14.715V0.0999982H55.9781V14.53C55.9781 19.6113 58.1734 22.152 62.5641 22.152C66.9301 22.152 69.1131 19.6113 69.1131 14.53V0.0999982H73.8491V14.715C73.8491 18.4643 72.8501 21.3503 70.8521 23.373C68.8788 25.371 66.1038 26.37 62.5271 26.37Z" fill="url(#grad1)"/>

</svg>
